<svg id="Layer_1" xmlns="http://www.w3.org/2000/svg" viewBox="0 0 30 30"><style>.st0{fill:#d15f27}</style><path class="st0" d="M29.4 8.7c-.3-.2-.6-.2-.9 0l-7.7 5.9-5.1-11.4c-.2-.5-1.1-.5-1.4 0L9.2 14.8l-7.6-6c-.3-.2-.6-.2-.9 0-.3.1-.4.5-.3.8l5.3 13.7c.1.3.4.5.7.5h17.2c.3 0 .6-.2.7-.5l5.3-13.7c.1-.3 0-.7-.2-.9zM15 5.3l4.5 10.2-4.7 3.6-4.4-3.5L15 5.3zM8.6 16.2l-2.2 4.9-3.7-9.5 5.9 4.6zm-1.1 6.1l2.3-5.2 3.8 3-2.9 2.2H7.5zm5.6 0l1.7-1.3 1.6 1.3h-3.3zm5.7 0L16 20.1l4.1-3.2 2.4 5.4h-3.7zm4.8-1.2l-2.2-5 5.9-4.5-3.7 9.5zm.7 5.4c0 .4-.3.7-.7.7H6.5c-.4 0-.7-.3-.7-.7 0-.4.3-.7.7-.7h17.1c.3-.1.7.3.7.7z"/></svg>