<svg id="Layer_1" xmlns="http://www.w3.org/2000/svg" viewBox="0 0 30 30"><style>.st0{fill:#d15f27}</style><path class="st0" d="M17.9 25.8v-2.5c0-.2-.1-.4-.3-.5-.2-.1-.4 0-.5.1l-1 1c-.2.2-.2.5 0 .7.2.2.5.2.7 0l.1-.1v1.3c-.3 0-.5.2-.5.5s.2.5.5.5h1c.3 0 .5-.2.5-.5s-.2-.5-.5-.5zM4.7 10.1V7.6c0-.2-.1-.4-.3-.5-.2 0-.4.1-.5.2l-1 1c-.2.2-.2.5 0 .7s.5.2.7 0l.1-.1v1.3c-.3 0-.5.2-.5.5s.2.5.5.5h1c.3 0 .5-.2.5-.5 0-.4-.2-.6-.5-.6z"/><path class="st0" d="M28.1 5.8L13.5.4c-.6-.2-1.3-.2-1.9.1-.6.3-1 .8-1.3 1.4l-.2.4-2.3-.5c-.6-.1-1.3.1-1.8.5-.5.3-.9.9-1 1.5l-.1.4H2.7C1.3 4.2.2 5.3.2 6.7v20.6c0 1.4 1.1 2.5 2.5 2.5h16.7c1.3 0 2.6-.2 3.2-1.6l7-19.2c.4-1.4-.2-2.8-1.5-3.2zm-8.2 21.5c0 .8-.7 1.5-1.5 1.5H2.7c-.8 0-1.5-.7-1.5-1.5V6.7c0-.8.7-1.5 1.5-1.5h2.6c.2 0 .4-.2.5-.4l.1-.8c.1-.4.3-.7.7-.9.3-.2.7-.3 1.1-.2l2.8.5c.2 0 .4-.1.5-.3l.3-.8c.1-.4.4-.7.8-.8.4-.2.7-.2 1.1 0l7.5 2.7-7.6-1.3c-.3 0-.5.1-.6.4 0 .3.1.5.4.6l2.7.5H7.2c-.3 0-.5.2-.5.5s.2.5.5.5h11.3c.8 0 1.5.7 1.5 1.5l-.1 20.4zM20.2 5l2.9.5c.8.1 1.3.9 1.2 1.7l-3.4 19.3V6.7c0-.7-.3-1.2-.7-1.7zm8.4 3.6l-7 19.1 3.6-20.2c.1-.6 0-1.3-.4-1.8l2.9 1c.8.3 1.2 1.1.9 1.9z"/><path class="st0" d="M13.1 14.4c-.7-.6-1.5-1.2-2-2.1-.2-.3-.7-.3-.8 0-.6.9-1.3 1.6-2 2.2-1 .9-2 1.8-2 3.5 0 1.4 1.1 2.5 2.5 2.5.7 0 1.1-.2 1.5-.5v1.4c0 .3.2.5.5.5s.5-.2.5-.5V20c.4.3.8.5 1.5.5 1.2 0 2.2-.9 2.4-2.4.1-1.8-1-2.8-2.1-3.7zm.9 3.4c-.1.4-.4 1.6-1.5 1.6-.8 0-1.1-.3-1.5-1.2l-.1-.1-.1-.1h-.4s-.1 0-.1.1l-.1.1c-.5.9-.7 1.2-1.5 1.2s-1.5-.7-1.5-1.5c0-1.2.7-1.9 1.7-2.7.6-.5 1.2-1 1.7-1.8.6.7 1.2 1.3 1.8 1.8 1.2 1 1.9 1.5 1.6 2.6z"/></svg>