<svg id="Layer_1" xmlns="http://www.w3.org/2000/svg" viewBox="0 0 30 30"><style>.st0{fill:#d15f27}</style><path class="st0" d="M29.2 9.5L25 5.4c-.3-.3-.7-.5-1.1-.5H6.1c-.4 0-.9.2-1.2.5L.7 9.5c-.3.3-.4.6-.4 1s.1.7.4 1l13.1 13.1c.3.3.6.4 1 .5.4 0 .8-.2 1-.5l13.1-13.1c.8-.5.8-1.4.3-2zM9.3 10l5.1-3.8V10H9.3zm5.2 1v11.6L8.7 11h5.8zM8.1 9.8l-2-4h7.4l-5.4 4zm5.6 13.3L1.5 11h6.1l6.1 12.1zm6.9-9.7c-.2-.1-.5 0-.6.2l-4.5 9V11h.9c.3 0 .5-.2.5-.5s-.2-.5-.5-.5h-.9V6.3l3.9 2.9c.1.1.2.1.3.1.1 0 .3-.1.4-.2.2-.2.1-.5-.1-.7l-3.5-2.6h7.4L21.7 10h-3.5c-.3 0-.5.2-.5.5s.2.5.5.5h3l-.4.7c-.1.2 0 .5.2.6h.2c.2 0 .3-.1.4-.3l.6-1.1h6.1L16.2 23.1l4.6-9.1c.1-.2 0-.5-.2-.6zm7.8-3.4h-5.6l1.9-3.7 3.7 3.7zM5.3 6.3L7.1 10H1.6l3.7-3.7z"/></svg>