<?xml version="1.0" encoding="utf-8"?>
<!-- Generator: Adobe Illustrator 25.3.0, SVG Export Plug-In . SVG Version: 6.00 Build 0)  -->
<svg version="1.1" id="Calque_1" xmlns="http://www.w3.org/2000/svg" xmlns:xlink="http://www.w3.org/1999/xlink" x="0px" y="0px"
	 viewBox="0 0 595.3 595.3" style="enable-background:new 0 0 595.3 595.3;" xml:space="preserve">
<style type="text/css">
	.st0{fill:url(#SVGID_1_);}
</style>
<g>
	<linearGradient id="SVGID_1_" gradientUnits="userSpaceOnUse" x1="297.64" y1="485.9239" x2="297.64" y2="136.2594">
		<stop  offset="0" style="stop-color:#F39200"/>
		<stop  offset="0.5" style="stop-color:#FAC645"/>
		<stop  offset="1" style="stop-color:#F39200"/>
	</linearGradient>
	<path class="st0" d="M593.5,356.4c-2.7-50.1-19-95.8-46.4-137.6c-18.6-28.4-41.5-52.6-71.8-68.8c-27.4-14.7-55.3-18.5-85-5.5
		c-25.5,11.1-52.4,16.7-80.1,18c-5.6,0.3-11.1,0.6-16.8,0.5c-2.9,0-5.7-0.4-8.6-0.6c-29.4-1.6-57.7-8.3-85-19.8
		c-12.8-5.4-26.1-7.3-40-5.5c-24.9,3.1-46.4,14-65,30c-61.1,52.3-88.8,120.6-93.5,192c0.5,33.6,4.1,58.9,16.4,82.3
		c18.7,35.8,52.6,51.3,91.8,41.8c23.4-5.7,42.8-18.6,60.7-34.2c44.5-38.7,96.3-53.3,154.4-46.1c39.3,4.9,73.3,21.7,102.8,47.9
		c12.7,11.2,26.7,20.5,42.4,27.1c47.8,20.2,91.7,2.6,112.1-45.1C592.4,408.2,594.9,382.5,593.5,356.4z M212.3,322.5
		c-8.3,0.3-16.6,0-25.8,0c0,7.4,0.3,14.5-0.1,21.6c-0.3,5.2-0.7,10.7-2.6,15.5c-5.3,13.6-19.7,21.2-33.5,18.3
		c-14.3-2.9-24.2-15.1-24.4-30.1c-0.1-8.3,0-16.6,0-25.4c-9.3,0-18,0.3-26.7-0.1c-15.7-0.7-27.3-12.1-29.1-28.1
		c-1.5-13.4,8.2-27.5,22.1-31.1c4.7-1.2,9.7-1.2,14.6-1.3c6-0.2,12.1,0,19.1,0c0-8.5-0.1-16.5,0-24.6c0.1-12.9,5.6-22.6,17.3-28.3
		c17.9-8.7,39.7,2.4,42.3,22.2c1.3,9.8,0.2,20,0.2,30.8c9.6,0,17.5-0.2,25.4,0c17.2,0.6,29.6,11.9,31,28
		C243.6,306.9,229.9,321.9,212.3,322.5z M439.5,205.7c16.4-0.1,30.2,13.7,30.1,30.5c0,16.5-13.5,30-29.9,30.1
		c-16.5,0.1-30.4-13.9-30.3-30.4C409.5,219.7,423.2,205.9,439.5,205.7z M383.8,322.4c-16.7,0.1-30.4-13.6-30.3-30.3
		c0.1-16.6,13.3-29.9,29.9-29.9c16.7-0.1,30.1,13,30.3,29.5C413.9,308.5,400.4,322.4,383.8,322.4z M439.3,378.5
		c-16.3-0.1-29.9-13.8-29.9-30.1c0-16.5,14.1-30.4,30.5-30.3c16.4,0.2,29.7,13.7,29.7,30.3C469.6,365.2,456.2,378.6,439.3,378.5z
		 M495.3,322.4c-16.3-0.2-30.1-14.1-30-30.2c0.1-16.8,13.7-30.1,30.6-30c16.6,0.1,29.7,13.3,29.7,30
		C525.5,309.2,512,322.6,495.3,322.4z"/>
</g>
</svg>
