<?xml version="1.0" encoding="utf-8"?>
<!-- Generator: Adobe Illustrator 24.1.3, SVG Export Plug-In . SVG Version: 6.00 Build 0)  -->
<svg version="1.1" id="Calque_1" xmlns="http://www.w3.org/2000/svg" xmlns:xlink="http://www.w3.org/1999/xlink" x="0px" y="0px"
	 viewBox="0 0 595.3 595.3" style="enable-background:new 0 0 595.3 595.3;" xml:space="preserve">
<style type="text/css">
	.st0{fill:none;}
	.st1{fill:url(#SVGID_1_);}
	.st2{fill:url(#SVGID_2_);}
	.st3{fill:url(#SVGID_3_);}
	.st4{fill:url(#SVGID_4_);}
	.st5{fill:url(#SVGID_5_);}
</style>
<g>
	<path class="st0" d="M164.1,490.4c12.3,7,23.3,13.3,35.2,20c5.7-12.9,10.8-24.3,16-36c-9.6-5.5-18.2-10.5-28-16.2
		C179.4,469.1,172.2,479.2,164.1,490.4z"/>
	<path class="st0" d="M214.6,121.6c-5.5-12.1-10.6-23.4-16.3-36c-12.3,7.4-23.5,14-35.1,20.9c8.3,11.6,15.4,21.4,23.1,31.9
		C196.4,132.4,205.3,127.1,214.6,121.6z"/>
	<path class="st0" d="M97.4,419.7c8.7,11.6,16.3,21.8,24.4,32.5c10.6-9.6,19.9-17.9,29.2-26.4c-6.6-9-12.6-17.1-19.3-26.1
		C120,406.6,109.2,412.8,97.4,419.7z"/>
	<path class="st0" d="M253.5,528.2c14.2,1.3,26.7,2.5,39.7,3.7c0-14.4,0-26.7,0-39c-10.6-1.2-20.2-2.2-31.5-3.5
		C258.9,502.6,256.3,514.7,253.5,528.2z"/>
	<path class="st0" d="M149.7,171.1c-10-8.9-19.2-17.2-29.4-26.4c-8.2,11.6-15.7,22.2-23.7,33.4c12.2,7,22.7,13.1,34.2,19.7
		C137.5,188.4,143.4,180,149.7,171.1z"/>
	<path class="st0" d="M389.9,82.4c-13-4.3-25.3-8.4-39-12.9c-2.9,14.1-5.5,26.5-8.1,38.8c11.2,3.6,20.7,6.7,31,10.1
		C379,106.7,384.1,95.3,389.9,82.4z"/>
	<path class="st0" d="M293.7,103c-0.1-12.8-0.1-24.7-0.1-39.3c-13.9,1.5-26.9,2.8-40.6,4.2c3,14,5.7,26,8.4,38.6
		C272.6,105.3,282.9,104.2,293.7,103z"/>
	<path class="st0" d="M104.6,323.5c-13.1,1.4-25.4,2.8-39,4.2c2.8,13.6,5.3,25.6,8.3,39.8c14-4.6,26-8.6,37.9-12.5
		C109.2,343.7,107,334,104.6,323.5z"/>
	<path class="st0" d="M110.9,242.7c-12.4-4.1-24.2-7.9-37.4-12.2c-2.8,13.5-5.5,26-8.4,39.8c13.8,1.5,26.1,2.8,39.2,4.3
		C106.6,263.7,108.7,253.6,110.9,242.7z"/>
	<path class="st0" d="M342.4,487.9c2.7,12.9,5.2,24.7,8.2,38.8c13.9-4.8,25.9-9,38.4-13.4c-6.1-13.5-11.1-24.4-16.2-35.7
		C362.2,481.2,352.5,484.5,342.4,487.9z"/>
	<path class="st0" d="M416.2,143.1c8.4,7.7,16.1,14.7,24.3,22.1c9.5-8.6,18.8-17,29.3-26.5c-10.4-9.4-20-18.2-30.3-27.5
		C431.3,122.4,424.2,132.2,416.2,143.1z"/>
	<path class="st0" d="M492.8,315.5c12.8,1.2,25,2.4,38,3.7c0-14,0-26.3,0-40.1c-12.9,1.2-24.8,2.3-38,3.5
		C492.8,294.1,492.8,304.3,492.8,315.5z"/>
	<path class="st0" d="M482.5,234.8c12.7-4.2,24.5-8,37.5-12.3c-5.7-12.9-10.9-24.5-16.7-37.3c-12.2,7.1-23,13.3-34.2,19.8
		C473.7,215.3,477.9,224.7,482.5,234.8z"/>
	<path class="st0" d="M468.1,392.6c11.4,6.5,22.1,12.7,34.3,19.8c5.6-12.4,10.9-24.2,16.7-37.1c-13.6-4.4-25.3-8.3-37.5-12.2
		C477,373.1,472.7,382.5,468.1,392.6z"/>
	<path class="st0" d="M415.3,453.8c7.9,10.8,15.3,20.7,23.4,31.7c10.5-9.4,19.9-18,30-27.1c-10.5-9.5-19.7-17.8-29.3-26.5
		C431,439.5,423.3,446.5,415.3,453.8z"/>
	
		<linearGradient id="SVGID_1_" gradientUnits="userSpaceOnUse" x1="297.7463" y1="540.2899" x2="297.7463" y2="56.0882" gradientTransform="matrix(1 0 0 -1 0 595.8898)">
		<stop  offset="0" style="stop-color:#F39200"/>
		<stop  offset="0.5" style="stop-color:#FAC645"/>
		<stop  offset="1" style="stop-color:#F39200"/>
	</linearGradient>
	<path class="st1" d="M298.2,55.6c-132.3-0.1-241,107.6-242.4,239.7c-1.3,124.4,94.8,244,241.8,244.5
		c144.3,0.5,242.3-116.9,242.1-240.4C540.6,165.4,431.9,55.6,298.2,55.6z M350.9,69.5c13.7,4.5,26,8.6,39,12.9
		c-5.8,12.9-10.9,24.3-16.1,36c-10.3-3.4-19.8-6.5-31-10.1C345.4,96,348,83.6,350.9,69.5z M293.6,63.7c0,14.6,0,26.5,0.1,39.3
		c-10.8,1.2-21.1,2.3-32.3,3.5c-2.7-12.6-5.4-24.6-8.4-38.6C266.7,66.5,279.7,65.2,293.6,63.7z M120.3,144.7
		c10.2,9.2,19.4,17.5,29.4,26.4c-6.3,8.9-12.2,17.3-18.9,26.7c-11.5-6.6-22-12.7-34.2-19.7C104.6,166.9,112.1,156.3,120.3,144.7z
		 M73.5,230.5c13.2,4.3,25,8.1,37.4,12.2c-2.2,10.9-4.3,21-6.6,31.9c-13.1-1.5-25.4-2.8-39.2-4.3C68,256.5,70.7,244,73.5,230.5z
		 M65.6,327.7c13.6-1.4,25.9-2.8,39-4.2c2.4,10.5,4.6,20.2,7.2,31.5c-11.9,3.9-23.9,7.9-37.9,12.5C70.9,353.3,68.4,341.3,65.6,327.7
		z M121.8,452.2c-8.1-10.7-15.7-20.9-24.4-32.5c11.8-6.9,22.6-13.1,34.3-20c6.7,9,12.7,17.1,19.3,26.1
		C141.7,434.3,132.4,442.6,121.8,452.2z M198.3,85.6c5.7,12.6,10.8,23.9,16.3,36c-9.3,5.5-18.2,10.8-28.3,16.8
		c-7.7-10.5-14.8-20.3-23.1-31.9C174.8,99.6,186,93,198.3,85.6z M199.3,510.4c-11.9-6.7-22.9-13-35.2-20
		c8.1-11.2,15.3-21.3,23.2-32.2c9.8,5.7,18.4,10.7,28,16.2C210.1,486.1,205,497.5,199.3,510.4z M293.2,531.9
		c-13-1.2-25.5-2.4-39.7-3.7c2.8-13.5,5.4-25.6,8.2-38.8c11.3,1.3,20.9,2.3,31.5,3.5C293.2,505.2,293.2,517.5,293.2,531.9z
		 M350.6,526.7c-3-14.1-5.5-25.9-8.2-38.8c10.1-3.4,19.8-6.7,30.4-10.3c5.1,11.3,10.1,22.2,16.2,35.7
		C376.5,517.7,364.5,521.9,350.6,526.7z M365.8,349.1c2.8,3.2,8.7,4.3,13.4,5.3c12.4,2.8,19.9,9.9,19.5,22.9
		c-0.4,12-7,19.8-19.1,21.2c-12.9,1.5-20.1-5.3-24.9-17.1c-3.4-8.3-8.7-16.6-15.1-22.8c-12.9-12.5-27.2-23.6-41.2-35.5
		c-17.6,14.4-35.4,28.4-52.4,43.3c-3.2,2.8-3.7,9-4.8,13.8c-3,12.6-11.4,21.3-23.4,17.8c-8.2-2.4-17.9-11.6-20.1-19.6
		c-3.1-11.6,5.3-20,17.8-23.8c7-2.1,14.2-6.2,19.1-11.5c13.4-14.4,25.5-30,38.1-45c-14.3-17.5-28-34.8-42.6-51.4
		c-2.8-3.2-8.7-4.5-13.4-5.4c-12.9-2.3-20.1-10.3-19.8-22.7c0.3-12.6,8.2-20.9,21-21.5c12.5-0.5,20.1,6.4,23.5,19
		c1.8,6.5,5.6,13.4,10.5,17.9c14.6,13.3,30.2,25.6,46,38.8c17.1-14.3,33.4-27.5,49.2-41.3c3.4-3,6.1-8,6.9-12.5
		c2.5-14.1,9.8-22.8,24.4-21.9c11.7,0.7,19.7,8,20.3,20.2c0.7,14.7-7.2,22.5-21.8,24.1c-3.6,0.4-8.2,1.7-10.4,4.3
		c-14.7,17.2-28.9,34.9-43.2,52.3C337.5,315.2,351.3,332.6,365.8,349.1z M438.7,485.5c-8.1-11-15.5-20.9-23.4-31.7
		c8-7.3,15.7-14.3,24.1-21.9c9.6,8.7,18.8,17,29.3,26.5C458.6,467.5,449.2,476.1,438.7,485.5z M502.4,412.4
		c-12.2-7.1-22.9-13.3-34.3-19.8c4.6-10.1,8.9-19.5,13.5-29.5c12.2,3.9,23.9,7.8,37.5,12.2C513.3,388.2,508,400,502.4,412.4z
		 M530.8,319.2c-13-1.3-25.2-2.5-38-3.7c0-11.2,0-21.4,0-32.9c13.2-1.2,25.1-2.3,38-3.5C530.8,292.9,530.8,305.2,530.8,319.2z
		 M520,222.5c-13,4.3-24.8,8.1-37.5,12.3c-4.6-10.1-8.8-19.5-13.4-29.8c11.2-6.5,22-12.7,34.2-19.8C509.1,198,514.3,209.6,520,222.5
		z M440.5,165.2c-8.2-7.4-15.9-14.4-24.3-22.1c8-10.9,15.1-20.7,23.3-31.9c10.3,9.3,19.9,18.1,30.3,27.5
		C459.3,148.2,450,156.6,440.5,165.2z"/>
	
		<linearGradient id="SVGID_2_" gradientUnits="userSpaceOnUse" x1="407.3658" y1="60.1617" x2="345.4148" y2="122.1129" gradientTransform="matrix(0.7071 0.7071 0.7071 -0.7071 -36.7387 -157.9078)">
		<stop  offset="0" style="stop-color:#F39200"/>
		<stop  offset="0.5" style="stop-color:#FAC645"/>
		<stop  offset="1" style="stop-color:#F39200"/>
	</linearGradient>
	<path class="st2" d="M192.1,37.7c33.6-13.6,69.1-20.5,105.6-20.5s72,6.9,105.6,20.5C429.7,48.4,454.1,63,476,81.1L488.2,69
		C375.5-25.1,209.7-23,99.5,75.5l12.1,12.1C135.5,66.4,162.5,49.7,192.1,37.7z"/>
	
		<linearGradient id="SVGID_3_" gradientUnits="userSpaceOnUse" x1="878.1174" y1="-46.3738" x2="603.2624" y2="228.4812" gradientTransform="matrix(0.7071 0.7071 0.7071 -0.7071 -36.7387 -157.9078)">
		<stop  offset="0" style="stop-color:#F39200"/>
		<stop  offset="0.5" style="stop-color:#FAC645"/>
		<stop  offset="1" style="stop-color:#F39200"/>
	</linearGradient>
	<path class="st3" d="M526.2,107.1L514,119.3c18.3,21.9,32.9,46.3,43.6,72.8c13.6,33.6,20.5,69.1,20.5,105.6s-6.9,72-20.5,105.6
		c-12,29.6-28.8,56.5-50,80.4l12.1,12.1C618.1,385.6,620.3,219.8,526.2,107.1z"/>
	
		<linearGradient id="SVGID_4_" gradientUnits="userSpaceOnUse" x1="511.532" y1="-402.2112" x2="247.5664" y2="-138.2458" gradientTransform="matrix(0.7071 0.7071 0.7071 -0.7071 -36.7387 -157.9078)">
		<stop  offset="0" style="stop-color:#F39200"/>
		<stop  offset="0.5" style="stop-color:#FAC645"/>
		<stop  offset="1" style="stop-color:#F39200"/>
	</linearGradient>
	<path class="st4" d="M17.1,297.7c0-36.4,6.9-72,20.5-105.6c9.5-23.4,21.9-45.1,37.2-65l-12.2-12.2C-22.9,224.7-20.8,380.7,69,488.2
		L81.1,476c-18.1-21.9-32.7-46.3-43.5-72.8C24,369.6,17.1,334.1,17.1,297.7z"/>
	
		<linearGradient id="SVGID_5_" gradientUnits="userSpaceOnUse" x1="766.1995" y1="-298.9547" x2="708.8081" y2="-241.5634" gradientTransform="matrix(0.7071 0.7071 0.7071 -0.7071 -36.7387 -157.9078)">
		<stop  offset="0" style="stop-color:#F39200"/>
		<stop  offset="0.5" style="stop-color:#FAC645"/>
		<stop  offset="1" style="stop-color:#F39200"/>
	</linearGradient>
	<path class="st5" d="M403.2,557.6c-33.6,13.6-69.1,20.5-105.6,20.5s-72-6.9-105.6-20.5c-26.5-10.7-50.9-25.3-72.8-43.5L107,526.3
		c107.5,89.8,263.5,91.9,373.3,6.3l-12.2-12.2C448.3,535.7,426.6,548.1,403.2,557.6z"/>
</g>
</svg>
