<?xml version="1.0" encoding="utf-8"?>
<!-- Generator: Adobe Illustrator 25.3.0, SVG Export Plug-In . SVG Version: 6.00 Build 0)  -->
<svg version="1.1" id="Calque_1" xmlns="http://www.w3.org/2000/svg" xmlns:xlink="http://www.w3.org/1999/xlink" x="0px" y="0px"
	 viewBox="0 0 595.3 595.3" style="enable-background:new 0 0 595.3 595.3;" xml:space="preserve">
<style type="text/css">
	.st0{fill:url(#SVGID_1_);}
	.st1{fill:url(#SVGID_2_);}
</style>
<g>
	<linearGradient id="SVGID_1_" gradientUnits="userSpaceOnUse" x1="297.64" y1="594.4378" x2="297.64" y2="3.384091e-02">
		<stop  offset="0" style="stop-color:#F39200"/>
		<stop  offset="0.5" style="stop-color:#FAC645"/>
		<stop  offset="1" style="stop-color:#F39200"/>
	</linearGradient>
	<path class="st0" d="M544.1,131.7C476.1,33.8,380.7-10,261.6,2C198.1,8.4,143.4,35.6,96.3,78.4c-6.4,5.9-9.2,12.9-5.6,21.3
		c3.4,7.9,9.9,10.9,18.4,10.8c22.6-0.1,45.1-0.2,67.7,0c1.8,0,3.5-0.1,5.1-0.4l44,75.8c1.7,3,5.6,4,8.5,2.3v0c3-1.7,4-5.6,2.3-8.5
		l-43.7-75.4c1.4-1.5,2.7-3.2,3.9-5.3c9.1-16.1,18.2-32.1,27.8-47.8c2-3.3,6.1-6.4,9.8-7.4c42.8-11.4,85.7-10.5,128.4,0.2
		c3.2,0.8,6.5,3.9,8.3,6.8c9.5,15.8,18.7,31.8,27.7,47.9c1.1,1.9,2.2,3.5,3.5,5l-43.9,75.9c-1.7,3-0.7,6.8,2.3,8.5v0
		c3,1.7,6.8,0.7,8.5-2.3l43.9-75.9c2,0.4,4.1,0.6,6.5,0.6c18.2-0.3,36.3-0.3,54.5,0.1c3.4,0.1,7.6,1.5,9.9,3.9
		c31.3,31.6,53.2,68.9,64.9,111.9c1,3.7,0.1,8.7-1.8,12.1c-8.6,15.6-17.7,31-26.9,46.3c-1.3,2.1-2.2,4.2-2.9,6.2H430
		c-3.4,0-6.2,2.8-6.2,6.2l0,0c0,3.4,2.8,6.2,6.2,6.2h87.4c0.6,2,1.5,4,2.8,6c9.1,15,18.1,30.1,26.5,45.6c2.1,3.9,3.1,9.6,1.9,13.7
		c-11.8,41.9-32.9,78.7-63.6,109.7c-2.9,2.9-8,4.8-12.1,5c-17.6,0.5-35.1,0.5-52.7,0.1c-2.5,0-4.7,0.2-6.8,0.6l-43.9-75.6
		c-1.7-3-5.6-4-8.5-2.3h0c-3,1.7-4,5.6-2.3,8.5l43.8,75.5c-1.4,1.5-2.7,3.3-3.9,5.3c-8.7,15.3-17.3,30.6-26.7,45.4
		c-2.5,3.9-7.3,7.8-11.7,8.9c-41.9,10.7-84,10.5-125.9-0.1c-4-1-8.2-4.4-10.5-7.9c-9.3-14.9-18.2-30.1-26.7-45.4
		c-1.2-2.2-2.6-4.2-4.1-5.8l43.8-75.8c1.7-3,0.7-6.8-2.3-8.5l0,0c-3-1.7-6.8-0.7-8.5,2.3l-43.7,75.6c-2.4-0.6-5.1-0.8-8-0.6
		c-8.2,0.4-16.4,0.1-24.6,0.1c-8.8,0-17.6-0.4-26.4,0.1c-6.2,0.4-10.3-1.9-14.5-6.2C79.2,446.5,58.6,410.2,46.5,369
		c-1.1-3.9-0.3-9.3,1.7-12.9c8-14.9,16.5-29.7,25.5-44.1c1.8-2.9,3.1-5.7,3.9-8.5h87.7c3.4,0,6.2-2.8,6.2-6.2l0,0
		c0-3.4-2.8-6.2-6.2-6.2H77.6c-0.7-2.8-2-5.6-3.7-8.5c-10.5-17.3-20.3-34.9-30.4-52.4c-5.9-10.2-12.7-14.4-20.8-12.9
		c-10.2,1.9-14.2,9.3-16,18.6c-7.8,38.3-9,76.8-1.5,115.2C37.8,519.5,198,624.3,365,586.9C566.2,541.7,661.7,301.2,544.1,131.7z"/>
	<linearGradient id="SVGID_2_" gradientUnits="userSpaceOnUse" x1="297.9246" y1="390.0633" x2="297.9246" y2="204.2399">
		<stop  offset="0" style="stop-color:#F39200"/>
		<stop  offset="0.5" style="stop-color:#FAC645"/>
		<stop  offset="1" style="stop-color:#F39200"/>
	</linearGradient>
	<path class="st1" d="M258.7,390.1c26.1-0.2,52.1-0.1,78.2,0c10.1,0,17.2-4.2,22.1-13c12.8-22.7,25.8-45.2,38.9-67.7
		c4.7-8.1,4.8-15.9,0.1-24c-13.3-23-26.6-46.1-39.7-69.3c-4.7-8.3-11.5-11.9-20.9-11.8c-13.2,0.2-26.3,0.1-39.5,0.1
		s-26.4,0.1-39.5,0c-9.4-0.1-16.1,3.4-20.8,11.8c-12.9,22.9-26,45.8-39.4,68.4c-5.2,8.8-5,16.8,0.2,25.5
		c13.2,22.4,26.2,45,38.9,67.7C242.1,386.4,249,390.1,258.7,390.1z"/>
</g>
</svg>
