<?xml version="1.0" encoding="utf-8"?>
<!-- Generator: Adobe Illustrator 24.1.3, SVG Export Plug-In . SVG Version: 6.00 Build 0)  -->
<svg version="1.1" id="Layer_1" xmlns="http://www.w3.org/2000/svg" xmlns:xlink="http://www.w3.org/1999/xlink" x="0px" y="0px"
	 viewBox="0 0 512 512" style="enable-background:new 0 0 512 512;" xml:space="preserve">
<style type="text/css">
	.st0{fill:none;}
	.st1{fill:url(#SVGID_1_);}
	.st2{fill:url(#SVGID_2_);}
	.st3{fill:url(#SVGID_3_);}
</style>
<g>
	<path class="st0" d="M306.8,85c10,0,10,0,10.1-10.3c0-1.6,0-3.2,0-4.8c-0.1-4.4-1.3-5.6-5.7-5.7c-1.1,0-2.1,0-3.2,0
		c-10.8,0-10.8,0-10.8,10.9C297.3,85,297.3,85,306.8,85z"/>
	
		<linearGradient id="SVGID_1_" gradientUnits="userSpaceOnUse" x1="247.3828" y1="776.5744" x2="247.3828" y2="355.0934" gradientTransform="matrix(1 0 0 1 0 -330)">
		<stop  offset="4.258980e-04" style="stop-color:#F39200"/>
		<stop  offset="0.5" style="stop-color:#FAC645"/>
		<stop  offset="0.9991" style="stop-color:#F39200"/>
	</linearGradient>
	<path class="st1" d="M76.8,173.2c-0.1-4.5-1.3-5.9-5.6-5.9c-3.5-0.1-7.1-0.1-10.6,0c-4.7,0.1-6.3,1.9-6.3,6.7c0,36.7,0,73.4,0,110
		c0,4.6,1.3,6,5.8,6c4.3,0,8.5,0,13.2,0c0,4.1,0,7.6,0,11.2c0.1,5.5,1.6,7,7.1,7.1c4,0,8.1,0,12.5,0c0,5,0,9.5,0,14
		c0,4.6,1.4,6,5.8,6c3.9,0,7.9,0,12.3,0c0,5.3,0.1,10.4,0,15.4c-0.1,5.2,1,6.3,6.1,6.3c4.9,0,9.8,0,14.4,0c0.3,0.9,0.5,1.1,0.5,1.3
		c0.1,3.4,0.1,6.8,0.2,10c0.1,5.6,1.5,7,7.1,7.1c3.3,0,6.4,0,10,0c0,7.9,0,15.2,0,22.5c0,16.2,0,32.5,0,48.7c0,6,2,7.4,8,6.8
		c9.8,0,19.5,0,29.3,0.1c4.1,0.4,6-1.2,6.2-4.7c0.1-3.6,0-7.2,0-10.8c0-5.8-1.4-7.1-7-6.9c-4.6,0.1-9.3,0-13.8,0v-6
		c3.6,0,7,0,10.4,0c11.4,0,11.7,1.1,11.3-11.9c-0.1-5.9,0-11.9,0-17.8h52.3c0,5.7,0,11.1,0,16.6c-0.1,11.8-0.2,23.4-0.2,35.2
		c0,5,1.3,6.3,5.9,6.3c9.2,0,18.3-0.1,27.5,0c11.6,0.1,11.1,0.4,11-11.4c-0.1-6.2-1.4-7.6-7.7-7.6c-4.5,0-8.8,0-13.3,0v-76.8
		c5,0,9.8,0,14.6,0c4.4,0,5.6-1.2,5.6-5.7c0-4.9,0-9.8,0-15.2c4.4,0,8.4,0,12.4,0c6.3,0,8-1.5,8-8c0-6.7,0-13.3,0-20.5
		c4,0,7.6,0,11.2,0c6.4-0.1,8.5-2.2,8.5-8.7c0-19.7,0-39.5,0-59.2c0-1.4,0-2.8,0-4.3h13c0,6.1,0,11.9,0,17.8c0,3.6,1.6,5.5,5.2,5.3
		c4.1-0.1,8.4,0,12.5,0c5.6,0,7.5-1.9,7.5-7.6v-26.8c0-4-3.3-7.3-7.3-7.3h-26.7c-1.4,0-2.8,0-4.1,0v-35c1.9,0,3.5,0,5,0
		c21.3,0,42.6,0,63.9-0.1c2.4,0,5.1-0.4,7.1-1.6c5.3-3.5,10.4-7.4,15.5-11.1c4.9-3.5,9.8-7.2,14.9-10.4c2.9-1.9,4.4-3.9,4.4-7.3l0,0
		c0-2.6-2.1-4.7-4.8-4.7h-38.2c-20.7,0-37.4-16.8-37.4-37.4l0,0H431c5.2,0,9.5-4.3,9.5-9.5c0-13.6,0-27.4,0-41.1
		c0-3.7-1.5-5.5-5.1-5.3c-3.1,0.1-6.1,0-9.5,0c0-5.5,0.1-10,0-14.7c-0.2-5.2-2.2-7.2-7.2-7.2H273.1c-3.3,0-6,2.7-6,6v12.4
		c-5,0-9.5,0-14.1,0c-4.9,0-6.4,1.6-6.4,6.4c0,35.1,0,70.3,0,105.6c0,3.8-0.1,7.5,0.1,11.2c0.2,3.4-0.8,4.9-4.4,4.6
		c-3.1-0.3-6-0.1-9.1-0.1c-4.5,0-5.6,1-5.7,5.6c-0.1,4.4,0,8.8,0,13.6c-1.6,0-2.8,0-4.1,0c-7.3,0-14.6,0-21.9,0
		c-4.7,0-5.7,1-5.7,5.9c0,4.3,0,8.5,0,13.2c-6.1,0-11.8,0-17.2,0.4c-5.5,0.1-6.9,1.5-7,7.2c-0.1,2.8-0.1,5.6,0,8.4
		c0.2,2.6-0.7,3.9-3.5,3.7c-3.3-0.2-6.5,0-9.8-0.1c-4.9-0.1-6.9,1.6-7.1,6.8c-0.1,3.4-0.1,6.8,0,10c0.1,2.6-1,3.4-3.5,3.4
		c-7.1-0.1-14.1,0-21.2,0c-11,0-11,0-10.6-11.2c0.1-5.3-1.4-7.1-6.9-7.2c-4.1,0-8.3,0-12.2,0c-0.2-0.8-0.4-1.1-0.4-1.3
		c-0.1-3.6-0.1-7.2-0.1-10.8c0-5.3-1.6-6.9-6.8-7c-4.1,0-8.3,0-12.9,0c0-2,0-3.4,0-4.8C76.8,195.5,76.8,184.4,76.8,173.2z
		 M308.1,64.2c1.1,0,2.1,0,3.2,0c4.4,0.1,5.6,1.3,5.7,5.7c0,1.6,0,3.2,0,4.8C316.8,85,316.8,85,306.8,85c-9.5,0-9.5,0-9.5-9.8
		C297.3,64.2,297.3,64.2,308.1,64.2z"/>
	
		<linearGradient id="SVGID_2_" gradientUnits="userSpaceOnUse" x1="384.178" y1="776.2001" x2="384.178" y2="575.0677" gradientTransform="matrix(1 0 0 1 0 -330)">
		<stop  offset="4.258980e-04" style="stop-color:#F39200"/>
		<stop  offset="0.5" style="stop-color:#FAC645"/>
		<stop  offset="0.9991" style="stop-color:#F39200"/>
	</linearGradient>
	<path class="st2" d="M455.8,396.1h-49.7c0-3.9,0-8,0-11.9c0-10-0.9-9.6,9.2-8.9c6.1,0.3,9.2-2.8,12.4-7.1c1.7-2.3,4.3-4,6.2-6.1
		c3.2-3.3,6.8-5.6,6.7-11.6c-0.5-17.3-0.4-34.7,0-52c0.1-5.1-3.6-7.6-6.1-8.9c-5.8-3.1-14.3,1.3-14.4,8.9c-0.1,18.4,0,36.7-0.1,55.2
		c0,1.5-0.5,4.4-1.1,4.4c-3.8,0.3-7.6,0.7-11.3-0.1c-0.9-0.2-1.3-4.3-1.3-6.4c-0.1-31.9,0-63.9-0.1-95.8c0-1.7,0.2-4.3-0.8-5.1
		c-3.4-2.8-6.4-6.7-11.8-5.1c-2.1,0.5-4.4,0.1-6.7,0.1c-5.6,0-9.7,4.3-9.7,9.9c0,32.6-0.1,65.1,0.1,97.7c0,4.3-1.2,6.2-5.6,5.7
		c-0.9-0.1-1.7-0.1-2.6,0c-4.6,0.7-5.8-1.4-5.8-5.9c0.2-14.9-0.3-29.9,0.3-44.7c0.2-5.5-3.4-8-5.9-9.6c-5.1-3.3-14.5,1-14.6,8.6
		c-0.1,18.1,0,36.2,0,54.3c0,2.4-0.2,4.5,2.9,5.7c2.1,0.9,3.8,3.3,5.2,5.3c3.3,4.6,6.8,8.4,13.2,7.2c2.4-0.4,5,0.1,7.5-0.1
		c4-0.3,5.5,1.3,5.3,5.5c0,3.7-0.1,7.5-0.1,11.2h-64.8c-1.6,0-2.9,1.3-2.9,2.9l0,0c0,1.6,1.3,2.9,2.9,2.9h64.8
		c0,11.2,0,22.5,0.1,33.7l0,0h-7.2c-6.8,0-11.6,1.6-11.6,5.3c0.1,3.6,4.7,5.2,11.6,5.2c9.5,0,18.9,0,28.4,0c10.1,0,20.4,0,30.5,0
		c6.8,0,11.6-1.6,11.6-5.2c0-3.6-4.7-5.2-11.6-5.2c-7.6,0-15.3,0-22.9,0c-0.1-11.6-0.1-22.8-0.1-34h49.7c1.6,0,2.9-1.3,2.9-2.9l0,0
		C458.8,397.4,457.5,396.1,455.8,396.1z"/>
	
		<linearGradient id="SVGID_3_" gradientUnits="userSpaceOnUse" x1="256.3789" y1="840.0103" x2="256.3789" y2="291.0359" gradientTransform="matrix(1 0 0 1 0 -330)">
		<stop  offset="4.258980e-04" style="stop-color:#F39200"/>
		<stop  offset="0.5" style="stop-color:#FAC645"/>
		<stop  offset="0.9991" style="stop-color:#F39200"/>
	</linearGradient>
	<path class="st3" d="M502.7,372.5c-4.4,0-8,3.6-8,8.1v27.4h0.2c0,47.4-37.7,85.9-84.3,85.9H102.3c-46.6,0-84.3-38.5-84.3-85.9
		v-27.4c0-4.5-3.5-8.1-8-8.1c-4.4,0-8,3.6-8,8.1v27.4C2.1,464.3,46.9,510,102.2,510h308.4c55.3,0,100.1-45.7,100.1-102.1v-27.4
		C510.7,376.1,507.2,372.5,502.7,372.5z"/>
</g>
</svg>
