<?xml version="1.0" encoding="utf-8"?>
<!-- Generator: Adobe Illustrator 25.3.0, SVG Export Plug-In . SVG Version: 6.00 Build 0)  -->
<svg version="1.1" id="Calque_1" xmlns="http://www.w3.org/2000/svg" xmlns:xlink="http://www.w3.org/1999/xlink" x="0px" y="0px"
	 viewBox="0 0 595.3 595.3" style="enable-background:new 0 0 595.3 595.3;" xml:space="preserve">
<style type="text/css">
	.st0{fill:url(#SVGID_1_);}
	.st1{fill:url(#SVGID_2_);}
	.st2{fill:url(#SVGID_3_);}
	.st3{fill:url(#SVGID_4_);}
	.st4{fill:url(#SVGID_5_);}
	.st5{fill:url(#SVGID_6_);}
</style>
<linearGradient id="SVGID_1_" gradientUnits="userSpaceOnUse" x1="559.9435" y1="226.3808" x2="559.9435" y2="368.4224" gradientTransform="matrix(1 0 0 -1 0 595.8898)">
	<stop  offset="0" style="stop-color:#F39200"/>
	<stop  offset="0.5" style="stop-color:#FAC645"/>
	<stop  offset="1" style="stop-color:#F39200"/>
</linearGradient>
<path class="st0" d="M594.4,337.8c1.2-26,1.3-52.1,0-78.1c-0.3-6-6.9-14.7-12.5-16.7c-18-6.4-36.9-10.2-57.2-15.5
	c0,48.2,0,94.2,0,142c20.7-5.3,40.1-9.4,58.8-15.7C588.4,352.1,594.1,343.5,594.4,337.8z"/>
<linearGradient id="SVGID_2_" gradientUnits="userSpaceOnUse" x1="559.0167" y1="381.5834" x2="559.0167" y2="573.9557" gradientTransform="matrix(1 0 0 -1 0 595.8898)">
	<stop  offset="0" style="stop-color:#F39200"/>
	<stop  offset="0.5" style="stop-color:#FAC645"/>
	<stop  offset="1" style="stop-color:#F39200"/>
</linearGradient>
<path class="st1" d="M546.8,101.1c0.9,30,1.5,60.1,0,90.1c-0.9,18.6,7.1,24,25.1,22.9c0-38-0.4-75.8,0.4-113.7
	c0.2-6.7,3.9-14.7,8.5-19.7c14-14.9,15.4-34.8,2-48.7c-13.3-13.8-35.6-13.4-48.5,0.8c-12.9,14.2-10.7,33.9,3.8,48.6
	C542.9,86.2,546.6,94.4,546.8,101.1z"/>
<linearGradient id="SVGID_3_" gradientUnits="userSpaceOnUse" x1="255.3433" y1="9.4797" x2="255.3433" y2="587.02" gradientTransform="matrix(1 0 0 -1 0 595.8898)">
	<stop  offset="0" style="stop-color:#F39200"/>
	<stop  offset="0.5" style="stop-color:#FAC645"/>
	<stop  offset="1" style="stop-color:#F39200"/>
</linearGradient>
<path class="st2" d="M507.1,53.3c0-29.2-14.6-44.4-41.6-44.4C328.1,8.9,190.7,8.9,53.3,9C17,9,3.5,22,3.5,57.7
	c0,155.8,0,311.7,0,467.5c0,33.8,27.4,61.2,61.2,61.2H446c33.8,0,61.2-27.4,61.2-61.2c0-35.8,0-71.6,0-107.4
	C507.2,296.3,507.2,174.8,507.1,53.3z M184.1,472.7c0,8.4-4.8,15.2-10.8,15.2h-33.3c-5.9,0-10.7-6.8-10.8-15.2v-67.9
	c0-8.4,4.8-15.2,10.8-15.2h33.3c5.9,0,10.8,6.8,10.8,15.2V472.7z M250.1,472.7c0,8.4-4.8,15.2-10.8,15.2h-33.3
	c-5.9,0-10.7-6.8-10.8-15.2v-67.9c0-8.4,4.8-15.2,10.8-15.2h33.3c5.9,0,10.8,6.8,10.8,15.2V472.7z M315.8,472.7
	c0,8.4-4.8,15.2-10.8,15.2h-33.3c-6,0-10.8-6.8-10.8-15.2v-67.9c0-8.4,4.8-15.2,10.8-15.2H305c5.9,0,10.8,6.8,10.8,15.2V472.7z
	 M381.4,472.7c0,8.4-4.8,15.2-10.8,15.2h-33.3c-5.9,0-10.8-6.8-10.8-15.2v-67.9c0-8.4,4.8-15.2,10.8-15.2h33.3
	c5.9,0,10.8,6.8,10.8,15.2V472.7z M468,311c0,20.1-16.3,36.5-36.5,36.5H417H95.3H78.8c-20.1,0-36.5-16.3-36.5-36.5V87.2
	c0-20.1,16.3-36.5,36.5-36.5h352.7c20.1,0,36.5,16.3,36.5,36.5V311z"/>
<linearGradient id="SVGID_4_" gradientUnits="userSpaceOnUse" x1="118.8961" y1="285.2165" x2="118.8961" y2="122.8011">
	<stop  offset="0" style="stop-color:#F39200"/>
	<stop  offset="0.5" style="stop-color:#FAC645"/>
	<stop  offset="1" style="stop-color:#F39200"/>
</linearGradient>
<path class="st3" d="M154.6,129c-4.6,0-7.5,2.7-8.5,3.7c-0.1,0.1-0.2,0.2-0.2,0.2c-0.1,0.1-0.2,0.2-0.3,0.2
	c-1.4-0.3-4.1-1.1-7.7-2.4c-0.1,0-0.2-0.1-0.3-0.1c-0.9-0.3-1.8-0.6-2.7-0.9c-5.7-1.7-10.8-3.3-18.3-3.3c-6.9,0-12.2,1.1-17.1,3.5
	c-0.6,0.3-1.3,0.6-1.8,1c-1.6-1.4-3.8-2.2-6-2.2h-6.4c-4.5,0-8.4,3.3-9,7.8l-5.6,37.4c-0.4,2.6,0.4,5.3,2.1,7.3s4.3,3.2,6.9,3.2h6.7
	c5.1,0,9.1-4.1,9.1-9.1v-1.2c0-1.4,0.1-2.3,0.2-2.8c0.1,0,0.3-0.1,0.4-0.1c0.8-0.1,1.7-0.2,2.6-0.2c4.2,0,9.1,1.1,14.2,2.3
	c3.1,0.7,6.4,1.4,9.6,2c-1.6,2.7-3.5,5.5-5.3,8.5c-12.8,20.2-28.6,45.2-28.6,68c0,8.3,2.3,16,6.5,21.8c5.2,7.1,13.1,11,22.2,11
	c8.2,0,15.6-3.5,20.8-9.8c4.5-5.5,7-12.6,7-20c0-5.4-0.8-9.4-1.7-13.7c-0.1-0.7-0.3-1.4-0.4-2.1c-3-15.5-0.6-42.7,9.6-62.6
	c1.1-2.2,1.3-4.7,0.6-7c2.8-2.1,5.2-4.7,7-7.7c1.5-2.5,6.9-12.9,6.9-19.9c0-3.1-1.1-6.2-3.1-8.5C161.7,130.5,158.2,129,154.6,129z"
	/>
<linearGradient id="SVGID_5_" gradientUnits="userSpaceOnUse" x1="255.1273" y1="285.2165" x2="255.1273" y2="122.8011">
	<stop  offset="0" style="stop-color:#F39200"/>
	<stop  offset="0.5" style="stop-color:#FAC645"/>
	<stop  offset="1" style="stop-color:#F39200"/>
</linearGradient>
<path class="st4" d="M290.9,129c-4.6,0-7.5,2.7-8.5,3.7c-0.1,0.1-0.2,0.2-0.2,0.2c-0.1,0.1-0.2,0.2-0.3,0.2
	c-1.4-0.3-4.1-1.1-7.7-2.4c-0.1,0-0.2-0.1-0.3-0.1c-0.9-0.3-1.8-0.6-2.7-0.9c-5.7-1.7-10.8-3.3-18.3-3.3c-6.9,0-12.2,1.1-17.1,3.5
	c-0.6,0.3-1.3,0.6-1.8,1c-1.6-1.4-3.8-2.2-6-2.2h-6.4c-4.5,0-8.4,3.3-9,7.8l-5.6,37.4c-0.4,2.6,0.4,5.3,2.1,7.3s4.3,3.2,6.9,3.2h6.7
	c5.1,0,9.1-4.1,9.1-9.1v-1.2c0-1.4,0.1-2.3,0.2-2.8c0.1,0,0.3-0.1,0.4-0.1c0.8-0.1,1.7-0.2,2.6-0.2c4.2,0,9.1,1.1,14.2,2.3
	c3.1,0.7,6.4,1.4,9.6,2c-1.6,2.7-3.5,5.5-5.3,8.5c-12.8,20.2-28.6,45.2-28.6,68c0,8.3,2.3,16,6.5,21.8c5.2,7.1,13.1,11,22.2,11
	c8.2,0,15.6-3.5,20.8-9.8c4.5-5.5,7-12.6,7-20c0-5.4-0.8-9.4-1.7-13.7c-0.1-0.7-0.3-1.4-0.4-2.1c-3-15.5-0.6-42.7,9.6-62.6
	c1.1-2.2,1.3-4.7,0.6-7c2.8-2.1,5.2-4.7,7-7.7c1.5-2.5,6.9-12.9,6.9-19.9c0-3.1-1.1-6.2-3.1-8.5C298,130.5,294.5,129,290.9,129z"/>
<linearGradient id="SVGID_6_" gradientUnits="userSpaceOnUse" x1="391.7905" y1="285.2165" x2="391.7905" y2="122.8011">
	<stop  offset="0" style="stop-color:#F39200"/>
	<stop  offset="0.5" style="stop-color:#FAC645"/>
	<stop  offset="1" style="stop-color:#F39200"/>
</linearGradient>
<path class="st5" d="M427.5,129c-4.6,0-7.5,2.7-8.5,3.7c-0.1,0.1-0.2,0.2-0.2,0.2c-0.1,0.1-0.2,0.2-0.3,0.2
	c-1.4-0.3-4.1-1.1-7.7-2.4c-0.1,0-0.2-0.1-0.3-0.1c-0.9-0.3-1.8-0.6-2.7-0.9c-5.7-1.7-10.8-3.3-18.3-3.3c-6.9,0-12.2,1.1-17.1,3.5
	c-0.6,0.3-1.3,0.6-1.8,1c-1.6-1.4-3.8-2.2-6-2.2h-6.4c-4.5,0-8.4,3.3-9,7.8l-5.6,37.4c-0.4,2.6,0.4,5.3,2.1,7.3s4.3,3.2,6.9,3.2h6.7
	c5.1,0,9.1-4.1,9.1-9.1v-1.2c0-1.4,0.1-2.3,0.2-2.8c0.1,0,0.3-0.1,0.4-0.1c0.8-0.1,1.7-0.2,2.6-0.2c4.2,0,9.1,1.1,14.2,2.3
	c3.1,0.7,6.4,1.4,9.6,2c-1.6,2.7-3.5,5.5-5.3,8.5c-12.8,20.2-28.6,45.2-28.6,68c0,8.3,2.3,16,6.5,21.8c5.2,7.1,13.1,11,22.2,11
	c8.2,0,15.6-3.5,20.8-9.8c4.5-5.5,7-12.6,7-20c0-5.4-0.8-9.4-1.7-13.7c-0.1-0.7-0.3-1.4-0.4-2.1c-3-15.5-0.6-42.7,9.6-62.6
	c1.1-2.2,1.3-4.7,0.6-7c2.8-2.1,5.2-4.7,7-7.7c1.5-2.5,6.9-12.9,6.9-19.9c0-3.1-1.1-6.2-3.1-8.5C434.6,130.5,431.1,129,427.5,129z"
	/>
</svg>
