<?xml version="1.0" encoding="utf-8"?>
<!-- Generator: Adobe Illustrator 25.3.0, SVG Export Plug-In . SVG Version: 6.00 Build 0)  -->
<svg version="1.1" id="Calque_1" xmlns="http://www.w3.org/2000/svg" xmlns:xlink="http://www.w3.org/1999/xlink" x="0px" y="0px"
	 viewBox="0 0 595.3 595.3" style="enable-background:new 0 0 595.3 595.3;" xml:space="preserve">
<style type="text/css">
	.st0{fill:url(#SVGID_1_);}
</style>
<linearGradient id="SVGID_1_" gradientUnits="userSpaceOnUse" x1="300.2356" y1="838.4269" x2="300.2356" y2="245.9998" gradientTransform="matrix(1 0 0 1 0 -245.9998)">
	<stop  offset="0" style="stop-color:#F39200"/>
	<stop  offset="0.5" style="stop-color:#FAC645"/>
	<stop  offset="1" style="stop-color:#F39200"/>
</linearGradient>
<path class="st0" d="M559.6,279.4c-13.8-17.8-20.2-38.6-28.1-59c-15.6-40.3-30.4-81.1-58.2-115.2c-1.5-1.8-3.9-54.7-3.8-86.3
	c-8,6.3-15.9,12.7-25.2,20.1c2.1-13,4-24.6,6.3-38.9c-15.9,12.3-29.7,23.1-43.9,33.6c-2.9,2.1-7.1,3.8-10.6,3.6
	c-17.3-0.8-34.6-2.3-51.8-3.7c-34.9-2.7-69.7-5.3-104.6-8.1c-4.3-0.3-8.6-0.8-12.9-1.2c-0.1,0.5-0.1,1.1-0.2,1.6
	c9.8,5.3,19.6,10.6,29.3,15.9c-0.2,0.7-0.4,1.4-0.6,2.1c-25.2,2.2-50.5,4.4-78,6.8c12.1,5.7,22.1,10.5,32.1,15.2
	c-0.2,0.7-0.4,1.4-0.6,2.1c-24.4,2.6-48.8,5.3-75.8,8.3c11.2,6.7,19.7,11.8,30.5,18.2c-22.3,3.1-41.8,5.7-63.3,8.7
	c11.8,5.7,21.4,10.4,33.3,16.3c-22.3,6.2-41.5,11.5-62.7,17.4c13,3.9,24.2,7.3,38.1,11.5c-19.9,6.5-37.2,12.2-56,18.3
	c10.9,3.5,20.3,6.5,31.7,10.1c-15.2,8.5-28.3,15.8-42.7,23.8c10.6,3.6,19.7,6.7,29.9,10.2c-14.4,11.2-27.4,21.3-41.3,32.1
	c10.1,1.7,18.7,3.2,28.5,4.8c-9.6,11.9-18,22.4-28.1,35c10.7,0,18.8,0,28.4,0c-6.5,44.6-1.2,86.8,8.5,130.9c0.8-2.8,1.1-3.4,1.1-3.9
	c-0.2-4-0.4-8.1-0.6-12.1c-2.4-47.8-0.8-95.1,12.1-141.6c20.8-75,65.3-130.7,133.9-167.2c46.5-24.7,96.6-36.9,148.6-42
	c9.9-1,19.9-1.3,29.9-2c0.6,1-22,14.9-27.4,16.1c-17.7,3.9-21,4.8-38.8,8.2c-37.1,7.2-73.7,16.7-106.1,36.8
	c-59,36.6-101.1,87.2-123.5,153.7c-11.2,33.2-17.9,67.1-14,102c5.6,51.4,30.4,93.6,66.9,129.1c44.8,43.6,99.5,69.5,159,85.6
	c22.6,6.1,45.7,10.2,68.7,14.6c4.2,0.8,11,4.4,13.2-3.6c8.2-30.1,12.1-60.5,6.8-91.7c-3.8-22.4-16.5-40.1-27.9-58.9
	c-22.7-37.3-38.1-77.1-32.4-122c3.4-26.7,17.3-46.8,41.5-59c6.8,7.9,12.8,15.5,19.4,22.4c6.9,7.1,14.1,14,21.8,20.2
	c14.5,11.8,30.5,21.5,49.1,24.9c7.2,1.3,9.6,4.3,11.2,10.7c3.4,13.3,9.8,24.9,23.5,30.1c27,10.1,61.9-10.8,65.4-39.3
	C571.1,308.6,569.7,292.4,559.6,279.4z M466.5,182.1l-38.1-29.8l59.1,20.1L466.5,182.1z"/>
</svg>
