<?xml version="1.0" encoding="utf-8"?>
<!-- Generator: Adobe Illustrator 24.1.3, SVG Export Plug-In . SVG Version: 6.00 Build 0)  -->
<svg version="1.1" id="Layer_1" xmlns="http://www.w3.org/2000/svg" xmlns:xlink="http://www.w3.org/1999/xlink" x="0px" y="0px"
	 viewBox="0 0 512 512" style="enable-background:new 0 0 512 512;" xml:space="preserve">
<style type="text/css">
	.st0{fill:none;}
	.st1{fill:url(#SVGID_1_);}
</style>
<path class="st0" d="M398.3,146c0-9.1,0-17.6,0-26.2c-16.7,0-33,0-49.4,0c0,9,0,17.6,0,26.2C365.8,146,382,146,398.3,146z"/>
<path class="st0" d="M280.5,274.2c14.6-11.8,31.6-20.6,50.2-25.5c0.2-0.8,0.2-1.8,0.2-2.9c-0.1-25.7-0.1-51.4-0.1-77.1
	c0-1.6-0.4-3.3-0.7-5.4c-14.6,0-28.8,0.3-43-0.1c-5.7-0.2-6.7,2.1-6.6,7.1c0.2,21.2,0.1,42.4,0,63.5
	C280.5,247,280.5,260.2,280.5,274.2z"/>
<path class="st0" d="M330.6,119.6c-16.6,0-32.7,0-49.6,0c0,9.1,0,17.5,0,26.5c16.6,0,32.9,0,49.6,0
	C330.6,137.2,330.6,128.5,330.6,119.6z"/>
<path class="st0" d="M233.2,422c-52.8,0.2-105.6,0.1-158.4,0.1c-12.3,0-13.6-1.3-13.6-13.6c0-97.5,0-195,0-292.5
	c0-12.2,1.3-13.5,13.6-13.5c109.2,0,218.5,0,327.7,0c1.5,0,3.1,0,4.7,0c5.4,0.1,8.2,3,8.7,8.3c0.1,1.8,0,3.6,0,5.4
	c0,45.1,0,90.3,0.1,135.4c0,1,0.2,2.2,0.5,3.4c10.9,4.6,21.1,10.7,30.4,18c0-2.3,0-4.4,0-6.4c0-53.3,0-106.5,0-159.8
	c0-2.3,0.1-4.6-0.1-6.8c-1.4-17.3-13.3-28.7-30.7-28.7c-118.3-0.1-236.5-0.1-354.8,0c-14.3,0-25.6,8.1-29.2,20.8
	c-1.3,4.7-1.4,9.8-1.4,14.7c-0.1,100.7-0.1,201.3-0.1,302c0,4.1-0.1,8.1,0,12.2c0.3,19.4,12.1,31.1,31.4,31.1
	c61.8,0,123.7,0,185.5,0c1.9,0,3.9-0.2,6.1-0.2c-5.9-8.9-10.7-18.5-14.4-28.6C237.7,422.3,235.8,422,233.2,422z"/>
<path class="st0" d="M360.1,54c1.5-14-0.9-25.8-13.4-32.8c-10.9-6.1-22.3-5.8-32.6,1.3C303.2,30,301.3,41.2,302.9,54
	C322,54,340.8,54,360.1,54z"/>
<path class="st0" d="M162.7,54.4c1.3,0,3.6-1.6,3.7-2.7c1.6-14.7-4.1-29.3-20.7-33.3c-22.7-5.5-40.8,10.5-36.5,36.1
	C127.2,54.5,145,54.6,162.7,54.4z"/>
<path class="st0" d="M213.1,123.5c-0.4,7.3-0.2,14.7-0.2,22.6c16.9,0,33.2,0,50,0c0-9.2,0-17.6,0-26.7c-15.5,0-30.8-0.1-46,0.2
	C215.5,119.6,213.2,122.1,213.1,123.5z"/>
<path class="st0" d="M195.2,119.6c-16.6,0-32.8,0-49.9,0c0,8.1-0.2,15.5,0.2,22.9c0,1.4,2,3.9,3.1,3.9c15.5,0.3,30.9,0.2,46.6,0.2
	C195.2,137.1,195.2,128.5,195.2,119.6z"/>
<path class="st0" d="M145.6,404.5c16.9,0,33.1,0,49.6,0c0-80.4,0-160.4,0-241.2c-14.3,0-28.2,0.3-42.1-0.1c-6.2-0.2-8,1.6-8,7.8
	c0.3,75.4,0.2,150.8,0.2,226.2C145.3,399.6,145.5,401.9,145.6,404.5z"/>
<path class="st0" d="M77.8,142c0.1,1.6,2.6,4.4,4,4.4c15,0.3,30.1,0.2,45.6,0.2c0-9.7,0-18.3,0-26.7c-16.8,0-33.1,0-49.8,0
	C77.6,127.7,77.3,134.9,77.8,142z"/>
<linearGradient id="SVGID_1_" gradientUnits="userSpaceOnUse" x1="255.7493" y1="0.2898" x2="255.7493" y2="511.9709" gradientTransform="matrix(1 0 0 -1 0 511.8898)">
	<stop  offset="4.258980e-04" style="stop-color:#F39200"/>
	<stop  offset="0.5" style="stop-color:#FAC645"/>
	<stop  offset="0.9991" style="stop-color:#F39200"/>
</linearGradient>
<path class="st1" d="M464.3,289.3c-0.3-1.4-0.6-2.8-0.6-4.1c-0.2-61.2-0.1-122.3-0.2-183.5c0-20.2-10.5-36.9-28.3-43.5
	c-6.6-2.5-14-3.2-21.1-3.6c-11.9-0.6-23.8-0.2-36.5-0.2c0-3.4,0.1-6.1,0-8.8c-0.3-13.2-4.6-24.8-14.6-33.7
	c-15.1-13.3-32.8-15-50.6-7.7c-18,7.4-26.9,22.1-26.5,41.7c0.2,6.8-1.7,8.8-8.6,8.7c-26.8-0.4-53.7-0.2-80.6-0.2
	c-12.8,0-12.8,0-13.5-12.4c-1.2-22.9-19.1-40.5-42-41.4c-26.2-1-45.6,13.7-48.9,37.5c-0.7,5.1-0.9,10.3-1.4,16.3
	c-9.7,0-19.3,0.2-29,0C31.6,53.7,13.3,78.8,13.4,103c0.6,105.8,0.6,211.7,0,317.5c-0.2,26.8,20.8,49.1,49,48.9
	c66.6-0.6,133.1-0.2,199.7,0c2.2,0,4.7,0.7,6.9,1.8c24.3,24.9,58.1,40.4,95.6,40.4c73.6,0,133.5-59.9,133.5-133.5
	C498.1,344,485.3,312.9,464.3,289.3z M314.1,22.5c10.3-7.1,21.7-7.4,32.6-1.3c12.5,7,14.9,18.8,13.4,32.8c-19.3,0-38.1,0-57.2,0
	C301.3,41.2,303.2,30,314.1,22.5z M145.7,18.4c16.6,4,22.3,18.6,20.7,33.3c-0.1,1.1-2.4,2.7-3.7,2.7c-17.7,0.2-35.5,0.1-53.5,0.1
	C104.9,28.9,123,12.9,145.7,18.4z M247.5,452.1c-61.8,0-123.7,0-185.5,0c-19.3,0-31.1-11.7-31.4-31.1c-0.1-4.1,0-8.1,0-12.2
	c0-100.7,0-201.3,0.1-302c0-4.9,0.1-10,1.4-14.7C35.7,79.4,47,71.3,61.3,71.3c118.3-0.1,236.5-0.1,354.8,0
	c17.4,0,29.3,11.4,30.7,28.7c0.2,2.2,0.1,4.5,0.1,6.8c0,53.3,0,106.5,0,159.8c0,2,0,4.1,0,6.4c-9.3-7.3-19.5-13.4-30.4-18
	c-0.3-1.2-0.5-2.4-0.5-3.4c-0.1-45.1-0.1-90.3-0.1-135.4c0-1.8,0.1-3.6,0-5.4c-0.5-5.3-3.3-8.2-8.7-8.3c-1.6,0-3.2,0-4.7,0
	c-109.2,0-218.5,0-327.7,0c-12.3,0-13.6,1.3-13.6,13.5c0,97.5,0,195,0,292.5c0,12.3,1.3,13.6,13.6,13.6c52.8,0,105.6,0.1,158.4-0.1
	c2.6,0,4.5,0.3,6,1.3c3.7,10.1,8.5,19.7,14.4,28.6C251.4,451.9,249.4,452.1,247.5,452.1z M398.3,119.8c0,8.6,0,17.1,0,26.2
	c-16.3,0-32.5,0-49.4,0c0-8.6,0-17.2,0-26.2C365.3,119.8,381.6,119.8,398.3,119.8z M280.5,170.3c-0.1-5,0.9-7.3,6.6-7.1
	c14.2,0.4,28.4,0.1,43,0.1c0.3,2.1,0.7,3.8,0.7,5.4c0,25.7,0,51.4,0.1,77.1c0,1.1,0,2.1-0.2,2.9c-18.6,4.9-35.6,13.7-50.2,25.5
	c0-14,0-27.2,0-40.4C280.6,212.7,280.7,191.5,280.5,170.3z M281,146.1c0-9,0-17.4,0-26.5c16.9,0,33,0,49.6,0c0,8.9,0,17.6,0,26.5
	C313.9,146.1,297.6,146.1,281,146.1z M262.9,119.4c0,9.1,0,17.5,0,26.7c-16.8,0-33.1,0-50,0c0-7.9-0.2-15.3,0.2-22.6
	c0.1-1.4,2.4-3.9,3.8-3.9C232.1,119.3,247.4,119.4,262.9,119.4z M145.1,171c0-6.2,1.8-8,8-7.8c13.9,0.4,27.8,0.1,42.1,0.1
	c0,80.8,0,160.8,0,241.2c-16.5,0-32.7,0-49.6,0c-0.1-2.6-0.3-4.9-0.3-7.3C145.3,321.8,145.4,246.4,145.1,171z M148.6,146.4
	c-1.1,0-3.1-2.5-3.1-3.9c-0.4-7.4-0.2-14.8-0.2-22.9c17.1,0,33.3,0,49.9,0c0,8.9,0,17.5,0,27C179.5,146.6,164.1,146.7,148.6,146.4z
	 M127.4,119.9c0,8.4,0,17,0,26.7c-15.5,0-30.6,0.1-45.6-0.2c-1.4,0-3.9-2.8-4-4.4c-0.5-7.1-0.2-14.3-0.2-22.1
	C94.3,119.9,110.6,119.9,127.4,119.9z M391.7,492.5c-63,14.7-123.3-26.5-135.6-92.7c-2.8-15.1-2.3-30.3,0.6-45.3
	c0.7-3.6,2.2-6.6,6-7.3c3-0.6,5.6,1.1,7.8,5.1c3.9,6.9,7.5,13.8,11.5,20.6c0.6,1.1,1.1,2.2,1.4,3.3h33c1.2,0,2.3,1.1,2.3,2.4
	s-1,2.4-2.3,2.4h-33c-0.3,1.1-0.8,2.2-1.5,3.3c-3.4,5.6-6.6,11.4-9.6,17.3c-0.7,1.4-1,3.6-0.6,5.1c4.6,16.2,12.3,30.5,23.5,42.7
	c1.6,1.7,3.2,2.6,5.5,2.4c3.3-0.2,6.6,0,9.9,0c3.1,0,6.2,0.2,9.3,0c1.1-0.1,2.1,0,3,0.2l16.5-29.7c0.6-1.2,2.1-1.6,3.2-0.9
	c1.2,0.6,1.5,2.1,0.9,3.3L327,454.5c0.5,0.6,1,1.4,1.5,2.3c3.2,6,6.6,11.9,10.1,17.8c0.9,1.4,2.5,2.7,4,3.1
	c15.8,4.1,31.6,4.2,47.4,0c1.6-0.4,3.5-2,4.4-3.5c3.6-5.8,6.8-11.8,10.1-17.8c0.5-0.8,1-1.5,1.5-2.1l-16.5-29.7
	c-0.6-1.1-0.2-2.6,0.9-3.3c1.1-0.7,2.6-0.3,3.2,0.9l16.5,29.7c0.8-0.1,1.7-0.2,2.6-0.2c6.7,0.2,13.3,0.2,19.9,0
	c1.6-0.1,3.5-0.9,4.6-2c11.6-12.2,19.6-26.6,24-43.1c0.5-1.6,0.1-3.9-0.7-5.4c-3.2-6.1-6.6-12-10-17.9c-0.5-0.8-0.9-1.6-1.1-2.4
	h-32.9c-1.2,0-2.3-1.1-2.3-2.4s1-2.4,2.3-2.4h32.9c0.3-0.7,0.6-1.6,1.1-2.4c3.4-6,6.9-12.1,10.1-18.2c0.7-1.4,1.1-3.3,0.7-4.8
	c-4.5-16.9-12.7-31.6-24.5-44c-0.8-0.9-2.4-1.5-3.7-1.5c-6.8-0.1-13.6-0.1-20.5,0c-0.9,0-1.6,0-2.4-0.2l-16.5,29.8
	c-0.6,1.2-2.1,1.6-3.2,0.9c-1.2-0.6-1.5-2.1-0.9-3.3l16.5-29.8c-0.5-0.6-0.9-1.3-1.3-2c-3.4-6.3-6.8-12.6-10.4-18.8
	c-0.7-1.2-1.9-2.4-3.1-2.7c-16.1-4.2-32.3-4.6-48.4-0.1c-1.4,0.4-2.9,1.6-3.7,2.9c-3.6,6.2-7.1,12.5-10.5,18.8
	c-0.5,0.8-1,1.5-1.5,2.1l16.5,29.6c0.6,1.1,0.2,2.6-0.9,3.3c-1.1,0.7-2.6,0.3-3.2-0.9L323,305c-0.6,0.2-1.2,0.2-1.9,0.2
	c-8.5-0.1-17,0-25.5,0c-3.2,0.1-5.6-1.1-6.9-4.2c-1.4-3.3-0.3-6.1,2.1-8.4c17.8-16.8,38.4-27.5,62.3-30c44.8-4.7,80.8,12.5,106.4,51
	C503.9,380.2,467.9,474.7,391.7,492.5z M329.2,373.8c5-8.9,9.9-17.9,14.8-26.9c1.7-3.3,4.3-4.6,7.8-4.6c5,0,9.9,0,14.9,0
	s9.9,0.1,14.9,0c3.6-0.1,6.1,1.3,7.9,4.6c5,9.1,10,18.2,15,27.2c1.8,3.2,1.8,6.2,0,9.4c-5,8.8-9.9,17.7-14.7,26.6
	c-1.8,3.4-4.5,5.1-8.3,5.1c-9.9,0-19.7-0.1-29.5,0c-3.6,0-6.2-1.5-8-4.8c-4.8-8.9-9.7-17.8-14.7-26.6
	C327.3,380.4,327.2,377.3,329.2,373.8z"/>
</svg>
