<?xml version="1.0" encoding="utf-8"?>
<!-- Generator: Adobe Illustrator 25.0.1, SVG Export Plug-In . SVG Version: 6.00 Build 0)  -->
<svg version="1.1" id="Layer_1" xmlns="http://www.w3.org/2000/svg" xmlns:xlink="http://www.w3.org/1999/xlink" x="0px" y="0px"
	 viewBox="0 0 512 512" style="enable-background:new 0 0 512 512;" xml:space="preserve">
<style type="text/css">
	.st0{fill:url(#SVGID_1_);}
</style>
<linearGradient id="SVGID_1_" gradientUnits="userSpaceOnUse" x1="256" y1="511" x2="256" y2="9.8563">
	<stop  offset="0" style="stop-color:#D86600"/>
	<stop  offset="0.5" style="stop-color:#FAC645"/>
	<stop  offset="1" style="stop-color:#D86600"/>
</linearGradient>
<path class="st0" d="M413.8,128c-49.6-58.7-104-102.7-119.5-114.8c-22.6-17.6-54.1-17.6-76.7,0c-31.9,24.8-80,68-119.5,114.7
	C46.3,189.4,20,243.4,20,288.5C20,335,32.6,371.2,57.5,396c22.3,22.3,53.6,34,90.5,34c33.4,0,62.7-11.2,85.9-32.5
	c-2.5,27.5-7.2,46.3-14.5,57.6c-6.9,10.7-16.8,16.9-47.2,16.9c-11,0-20,9-20,20s9,20,20,20h167.6c11,0,20-9,20-20s-9-20-20-20
	c-30.4,0-40.4-6.2-47.2-16.9c-7.4-11.5-12.1-30.6-14.6-58.8c23.6,22.1,53,33.7,86,33.7c17.1,0,33.1-2.5,47.5-7.5
	c10.4-3.6,16-15,12.4-25.4c-3.6-10.4-15-16-25.4-12.4c-10.2,3.5-21.8,5.3-34.5,5.3c-27.7,0-50.8-11.4-68.7-33.8
	c-14.4-17.9-20-36.5-20.1-36.6c0-0.1-0.1-0.2-0.1-0.3c-0.1-0.5-0.3-0.9-0.5-1.4c-0.1-0.2-0.1-0.3-0.2-0.5c-0.2-0.4-0.4-0.9-0.6-1.3
	c-0.1-0.2-0.2-0.3-0.2-0.5c-0.2-0.4-0.5-0.9-0.8-1.3c-0.1-0.1-0.1-0.2-0.2-0.3c-0.3-0.5-0.7-0.9-1-1.4c0,0,0-0.1-0.1-0.1
	c-2.6-3.2-6.2-5.6-10.5-6.7c-9.7-2.5-19.5,2.5-23.3,11.3c-0.1,0.1-0.1,0.2-0.2,0.4c-0.2,0.4-0.3,0.8-0.5,1.2
	c-0.1,0.3-0.2,0.6-0.3,0.9c0,0.2-0.1,0.3-0.1,0.5C235.9,323,217.1,390,148,390c-40.1,0-88-17.6-88-101.5
	c0-74.8,109-186.8,182.2-243.8c8.1-6.3,19.4-6.3,27.5,0c30.4,23.6,76.1,64.7,113.6,109c45,53.2,68.7,99.8,68.7,134.8
	c0,17.1-2.1,32.4-6.2,45.5c-3.3,10.5,2.6,21.8,13.1,25.1c10.5,3.3,21.8-2.6,25.1-13.1c5.3-16.9,8-36.2,8-57.4
	C492,243.4,465.7,189.4,413.8,128z"/>
</svg>
