<?xml version="1.0" encoding="utf-8"?>
<!-- Generator: Adobe Illustrator 25.0.1, SVG Export Plug-In . SVG Version: 6.00 Build 0)  -->
<svg version="1.1" id="Layer_1" xmlns="http://www.w3.org/2000/svg" xmlns:xlink="http://www.w3.org/1999/xlink" x="0px" y="0px"
	 viewBox="0 0 37 45" style="enable-background:new 0 0 37 45;" xml:space="preserve">
<style type="text/css">
	.st0{fill:url(#SVGID_1_);}
	.st1{fill:url(#SVGID_2_);}
	.st2{fill:url(#SVGID_3_);}
	.st3{fill:url(#SVGID_4_);}
</style>
<g id="Layer_2_1_">
	<g id="icons">
		<g>
			<linearGradient id="SVGID_1_" gradientUnits="userSpaceOnUse" x1="18.5" y1="44.8889" x2="18.5" y2="1.2301">
				<stop  offset="0" style="stop-color:#D86600"/>
				<stop  offset="0.5" style="stop-color:#FAC645"/>
				<stop  offset="1" style="stop-color:#D86600"/>
			</linearGradient>
			<path class="st0" d="M23,4.5h-3C20,3.7,19.3,3,18.5,3S17,3.7,17,4.5h-3C14,2,16,0,18.5,0S23,2,23,4.5z"/>
		</g>
		<g>
			<linearGradient id="SVGID_2_" gradientUnits="userSpaceOnUse" x1="18.5" y1="44.8889" x2="18.5" y2="1.2301">
				<stop  offset="0" style="stop-color:#D86600"/>
				<stop  offset="0.5" style="stop-color:#FAC645"/>
				<stop  offset="1" style="stop-color:#D86600"/>
			</linearGradient>
			<path class="st1" d="M18.5,45c-3.6,0-6.5-2.5-6.5-5.5h3c0,1.4,1.6,2.5,3.5,2.5c1.9,0,3.5-1.1,3.5-2.5h3C25,42.5,22.1,45,18.5,45z
				"/>
		</g>
		<g>
			<linearGradient id="SVGID_3_" gradientUnits="userSpaceOnUse" x1="18.4982" y1="44.8889" x2="18.4982" y2="1.2301">
				<stop  offset="0" style="stop-color:#D86600"/>
				<stop  offset="0.5" style="stop-color:#FAC645"/>
				<stop  offset="1" style="stop-color:#D86600"/>
			</linearGradient>
			<path class="st2" d="M18.5,39c-7.8,0-13.3-1.1-17.6-3.5l-0.8-0.4v-0.9c0-0.2,0-0.5-0.1-0.9c-0.1-1.5-0.3-3.7,0.7-5.5l0.2-0.2
				c0.3-0.4,0.6-0.7,1-1c1.4-1.3,3-2.8,3.4-7.6C6,10.8,11.5,5,18.5,5c7,0,12.5,5.8,13.1,13.9c0.4,4.8,2.1,6.4,3.4,7.6
				c0.4,0.3,0.7,0.6,1,1l0.2,0.3c1,1.8,0.8,4,0.6,5.5c0,0.4-0.1,0.7-0.1,0.9v0.9l-0.8,0.4C31.7,37.9,26.2,39,18.5,39z M3.1,33.3
				c3.7,1.9,8.6,2.8,15.4,2.8c6.7,0,11.6-0.9,15.4-2.8c0-0.1,0-0.2,0-0.2c0.1-1.1,0.2-2.6-0.2-3.7c-0.2-0.2-0.4-0.4-0.6-0.6
				c-1.6-1.4-3.9-3.6-4.4-9.6C28.2,13.8,24.9,8,18.5,8c-6.4,0-9.7,5.8-10.2,11.1c-0.5,6-2.8,8.2-4.4,9.6c-0.2,0.2-0.5,0.4-0.6,0.6
				c-0.5,1-0.3,2.6-0.2,3.7C3.1,33.1,3.1,33.2,3.1,33.3z"/>
		</g>
		<g>
			<linearGradient id="SVGID_4_" gradientUnits="userSpaceOnUse" x1="13.4704" y1="44.8889" x2="13.4704" y2="1.2301">
				<stop  offset="0" style="stop-color:#D86600"/>
				<stop  offset="0.5" style="stop-color:#FAC645"/>
				<stop  offset="1" style="stop-color:#D86600"/>
			</linearGradient>
			<path class="st3" d="M10.5,20c0,0-0.1,0-0.1,0c-0.8-0.1-1.4-0.8-1.4-1.6c0.4-4.5,3.2-8.2,7.1-9.3c0.8-0.2,1.6,0.2,1.9,1
				c0.2,0.8-0.2,1.6-1,1.9c-2.7,0.8-4.6,3.4-4.9,6.7C11.9,19.4,11.2,20,10.5,20z"/>
		</g>
	</g>
</g>
</svg>
