<?xml version="1.0" encoding="utf-8"?>
<!-- Generator: Adobe Illustrator 25.0.1, SVG Export Plug-In . SVG Version: 6.00 Build 0)  -->
<svg version="1.1" id="Layer_1" xmlns="http://www.w3.org/2000/svg" xmlns:xlink="http://www.w3.org/1999/xlink" x="0px" y="0px"
	 viewBox="0 0 65.2 65.2" style="enable-background:new 0 0 65.2 65.2;" xml:space="preserve">
<style type="text/css">
	.st0{fill-rule:evenodd;clip-rule:evenodd;fill:url(#SVGID_1_);}
</style>
<g id="Layer_2_1_">
	<g id="Ñëîé_1">
		<linearGradient id="SVGID_1_" gradientUnits="userSpaceOnUse" x1="32.6476" y1="65.1111" x2="32.6476" y2="0.544">
			<stop  offset="0" style="stop-color:#D86600"/>
			<stop  offset="0.5" style="stop-color:#FAC645"/>
			<stop  offset="1" style="stop-color:#D86600"/>
		</linearGradient>
		<path class="st0" d="M32.6,0c18,0,32.6,14.5,32.7,32.6c0,18-14.5,32.6-32.6,32.7c-18,0-32.6-14.5-32.7-32.6c0-8.7,3.4-17,9.6-23.1
			C15.7,3.4,24,0,32.6,0z M60.2,34.3l-6.1-6.1l-6.3,2l-4.3,13.4l3.9,5.4l8.2-1C58.4,43.9,59.9,39.2,60.2,34.3z M52.7,23.5l1.6-8.1
			c-0.7-0.8-1.4-1.6-2.1-2.4c-2.7-2.7-5.9-4.8-9.4-6.2l-7.7,3.9v6.6l11.4,8.3L52.7,23.5L52.7,23.5z M57.4,20.2l-0.9,4.7l3.5,3.6
			C59.6,25.6,58.7,22.8,57.4,20.2L57.4,20.2z M30.1,10.6l-7.1-4C19.2,8,15.8,10.2,13,13c-0.6,0.6-1.2,1.3-1.8,2l1.3,8.5l6.3,2
			l11.4-8.3L30.1,10.6L30.1,10.6z M28.5,5.2l4.2,2.3l4.5-2.3c-1.5-0.2-3-0.4-4.5-0.4C31.2,4.9,29.8,5,28.5,5.2z M10.9,28.1l-6,5.6
			c0.2,4.9,1.7,9.6,4.3,13.7l8.5,1.4l3.9-5.3l-4.3-13.4C17.3,30.2,10.9,28.1,10.9,28.1z M5.3,28l3.5-3.3l-0.8-5
			C6.7,22.4,5.7,25.2,5.3,28L5.3,28z M21.7,51.8l3.5,7.5c4.7,1.3,9.7,1.4,14.4,0.2l4-7.7l-3.9-5.3h-14L21.7,51.8L21.7,51.8z
			 M19.8,57.2l-2-4.3l-5-0.8C14.9,54.1,17.2,55.8,19.8,57.2z M52,52.3l-4.7,0.6L45,57.4C47.6,56.1,49.9,54.4,52,52.3L52,52.3z
			 M32.6,21.5l-10.5,7.6l4,12.3h13l4-12.4L32.6,21.5z"/>
	</g>
</g>
</svg>
