<?xml version="1.0" encoding="utf-8"?>
<!-- Generator: Adobe Illustrator 25.0.1, SVG Export Plug-In . SVG Version: 6.00 Build 0)  -->
<svg version="1.1" id="Layer_1" xmlns="http://www.w3.org/2000/svg" xmlns:xlink="http://www.w3.org/1999/xlink" x="0px" y="0px"
	 viewBox="0 0 748.9 511.2" style="enable-background:new 0 0 748.9 511.2;" xml:space="preserve">
<style type="text/css">
	.st0{fill:url(#SVGID_1_);}
	.st1{fill:url(#SVGID_2_);}
	.st2{fill:url(#SVGID_3_);}
	.st3{fill:url(#SVGID_4_);}
	.st4{fill:url(#SVGID_5_);}
	.st5{fill:url(#SVGID_6_);}
	.st6{fill:url(#SVGID_7_);}
</style>
<g id="Layer_2_1_">
	<g id="Main">
		<linearGradient id="SVGID_1_" gradientUnits="userSpaceOnUse" x1="25.8251" y1="511" x2="25.8251" y2="10.4963">
			<stop  offset="0" style="stop-color:#D86600"/>
			<stop  offset="0.5" style="stop-color:#FAC645"/>
			<stop  offset="1" style="stop-color:#D86600"/>
		</linearGradient>
		<path class="st0" d="M25.8,386.6H26c14.2-0.1,25.7-11.7,25.7-25.9c0,0,0,0,0-0.1V357c-0.1-14.2-11.6-25.7-25.8-25.7h-0.2
			c-14.3,0.1-25.8,11.7-25.7,26c0,0,0,0,0,0v3.5C0.1,375.1,11.6,386.6,25.8,386.6z"/>
		<linearGradient id="SVGID_2_" gradientUnits="userSpaceOnUse" x1="375.5536" y1="511.2301" x2="375.5536" y2="10.7263">
			<stop  offset="0" style="stop-color:#D86600"/>
			<stop  offset="0.5" style="stop-color:#FAC645"/>
			<stop  offset="1" style="stop-color:#D86600"/>
		</linearGradient>
		<path class="st1" d="M658.9,44.2C569.8-36,467,12.6,427,37.3c-13.4,8.4-28.1,14.5-43.5,18.1c-2.9,0.8-5.9,1.2-8.9,1.4
			c-3-0.2-6-0.7-8.9-1.4c-15.4-3.6-30.1-9.7-43.5-18.1c-40.1-24.6-142.8-73.2-231.9,7c-61.9,55.7-82,165.8-88,248.4
			c-0.9,14.2,10,26.5,24.2,27.3c14,0.9,26.1-9.6,27.3-23.6c7.5-103.4,32.7-179.3,71-213.8c60.9-54.8,132.9-24.4,170.3-1.4
			c18.3,11.4,38.3,19.7,59.3,24.5c6.6,1.6,13.4,2.5,20.1,2.6c6.8-0.2,13.5-1,20.1-2.6c21-4.8,41-13.1,59.3-24.5
			c37.5-23,109.4-53.5,170.3,1.4c75.7,68.2,77.9,267.8,70.1,332.7c-1.2,10.4-5.2,20.2-11.7,28.4c-7.4,9.3-16.4,14.3-28.2,15.5
			c-24.8,2.6-72.8-9.3-160.8-81.2c-32.6-26.6-73-41.8-115-43.3c-3.1-0.1-5.6-0.1-8.6,0c-42,1.5-82.4,16.7-115,43.3
			c-88.1,71.9-136,83.8-160.8,81.2c-11.8-1.3-20.7-6.2-28.2-15.5c-3.2-4.1-5.9-8.6-7.8-13.4c-1.6-4-2.8-8.2-3.5-12.5
			c-2.3-14.1-15.6-23.6-29.6-21.4C11.3,398.8,1.7,412.1,4,426.2c0,0,0,0,0,0c1.3,8.1,3.5,16,6.6,23.7c3.9,9.4,9,18.1,15.4,26.1
			c16.1,20.3,37.3,32,63.1,34.7c4,0.4,7.9,0.6,11.9,0.6c49.1,0,110.4-30.6,187-93.1c23.8-19.5,53.3-30.6,84-31.7
			c1.9,0,3.4-0.1,5.3,0c30.7,1.1,60.2,12.2,83.9,31.7c82.9,67.7,148.1,98,198.9,92.5c25.7-2.8,46.9-14.4,63-34.7
			c12.4-15.7,20.2-34.5,22.5-54.4C752.5,364.5,757.8,133.3,658.9,44.2z"/>
		<linearGradient id="SVGID_3_" gradientUnits="userSpaceOnUse" x1="204.4071" y1="511" x2="204.4071" y2="10.4963">
			<stop  offset="0" style="stop-color:#D86600"/>
			<stop  offset="0.5" style="stop-color:#FAC645"/>
			<stop  offset="1" style="stop-color:#D86600"/>
		</linearGradient>
		<path class="st2" d="M204.9,118.3c-14.3,0-25.8,11.6-25.8,25.8l0,0v37.3h-37.3c-14.3-0.3-26,11-26.3,25.3s11,26,25.3,26.3
			c0.3,0,0.7,0,1,0h37.3v37.3c-0.3,14.3,11,26,25.3,26.3c14.3,0.3,26-11,26.3-25.3c0-0.3,0-0.7,0-1v-37.3h37.3
			c14.3-0.3,25.6-12.1,25.3-26.3c-0.3-13.9-11.4-25-25.3-25.3h-37.3v-37.3C230.7,129.8,219.2,118.3,204.9,118.3
			C204.9,118.3,204.9,118.3,204.9,118.3z"/>
		<linearGradient id="SVGID_4_" gradientUnits="userSpaceOnUse" x1="547.58" y1="511" x2="547.5801" y2="10.4963">
			<stop  offset="0" style="stop-color:#D86600"/>
			<stop  offset="0.5" style="stop-color:#FAC645"/>
			<stop  offset="1" style="stop-color:#D86600"/>
		</linearGradient>
		<path class="st3" d="M547.6,115.2c-16,0-28.9,12.9-28.9,28.9c0,16,12.9,28.9,28.9,28.9s28.9-12.9,28.9-28.9c0,0,0,0,0,0
			C576.5,128.2,563.5,115.2,547.6,115.2z"/>
		<linearGradient id="SVGID_5_" gradientUnits="userSpaceOnUse" x1="547.58" y1="511" x2="547.58" y2="10.4963">
			<stop  offset="0" style="stop-color:#D86600"/>
			<stop  offset="0.5" style="stop-color:#FAC645"/>
			<stop  offset="1" style="stop-color:#D86600"/>
		</linearGradient>
		<circle class="st4" cx="547.6" cy="267.3" r="28.9"/>
		<linearGradient id="SVGID_6_" gradientUnits="userSpaceOnUse" x1="490.42" y1="511" x2="490.42" y2="10.4963">
			<stop  offset="0" style="stop-color:#D86600"/>
			<stop  offset="0.5" style="stop-color:#FAC645"/>
			<stop  offset="1" style="stop-color:#D86600"/>
		</linearGradient>
		<path class="st5" d="M490.4,176.8c-16,0-28.9,12.9-28.9,28.9s12.9,28.9,28.9,28.9s28.9-12.9,28.9-28.9v0
			C519.3,189.8,506.4,176.8,490.4,176.8z"/>
		<linearGradient id="SVGID_7_" gradientUnits="userSpaceOnUse" x1="602" y1="511" x2="602" y2="10.4963">
			<stop  offset="0" style="stop-color:#D86600"/>
			<stop  offset="0.5" style="stop-color:#FAC645"/>
			<stop  offset="1" style="stop-color:#D86600"/>
		</linearGradient>
		<path class="st6" d="M602,234.6c16,0,28.9-12.9,28.9-28.9c0-16-12.9-28.9-28.9-28.9s-28.9,12.9-28.9,28.9
			C573.1,221.7,586.1,234.6,602,234.6z"/>
	</g>
</g>
</svg>
